<?xml version="1.0" encoding="UTF-8"?>
<svg width="1060" height="870" xmlns="http://www.w3.org/2000/svg">

<!-- ══ Hintergrund ════════════════════════════════════════════════════════ -->
<rect width="1060" height="870" fill="#f0f4f8"/>

<!-- ══ Titel ══════════════════════════════════════════════════════════════ -->
<text x="450" y="30" text-anchor="middle"
      font-family="Courier New, monospace" font-size="17" font-weight="bold" fill="#1a2540">
  Schaltplan &#x2014; Wohnungs-ESP32 (ESP-WROOM-32)
</text>

<!-- ══ Externe Spannungsversorgung: Elegoo Power MB V2 ═══════════════════ -->
<rect x="800" y="6" width="240" height="46" rx="5"
      fill="#37474f" stroke="#1c262b" stroke-width="1.5"/>
<text x="920" y="24" text-anchor="middle"
      font-family="Courier New" font-size="10" font-weight="bold" fill="#fff">Elegoo Power MB V2</text>
<text x="920" y="37" text-anchor="middle"
      font-family="Courier New" font-size="7.5" fill="#b0bec5">Hohlstecker 6-12V &#x2192; Jumper 5V</text>
<text x="920" y="47" text-anchor="middle"
      font-family="Courier New" font-size="7" fill="#888">(versorgt Servo/DHT11/PIR, NICHT den ESP32)</text>
<!-- Eingang Hohlstecker-Symbol -->
<rect x="778" y="22" width="16" height="16" rx="2" fill="#222" stroke="#555"/>
<circle cx="786" cy="30" r="3" fill="#777"/>
<line x1="778" y1="30" x2="800" y2="30" stroke="#666" stroke-width="1"/>
<!-- Power MB Ausgaenge zur Stromschiene -->
<line x1="900" y1="52" x2="900" y2="80" stroke="#cc2222" stroke-width="2"/>
<text x="903" y="62" font-family="Courier New" font-size="7" fill="#ff8a80">+5V</text>
<line x1="895" y1="52" x2="895" y2="810" stroke="#222222" stroke-width="1.5" stroke-dasharray="4,3"/>
<text x="897" y="62" font-family="Courier New" font-size="7" fill="#bbb">GND</text>
<circle cx="900" cy="80" r="4" fill="#cc2222"/>
<circle cx="895" cy="810" r="4" fill="#222"/>

<!-- ══ Stromschienen ══════════════════════════════════════════════════════ -->
<line x1="175" y1="80" x2="1045" y2="80"
      stroke="#cc2222" stroke-width="2.5" stroke-dasharray="10,4"/>
<text x="1050" y="84" font-family="Courier New" font-size="11" font-weight="bold" fill="#cc2222">5V</text>
<text x="1050" y="98" font-family="Courier New" font-size="8" fill="#cc2222">(extern, GPIOs = 3.3V!)</text>

<line x1="175" y1="810" x2="1045" y2="810"
      stroke="#222222" stroke-width="2.5" stroke-dasharray="10,4"/>
<text x="1050" y="814" font-family="Courier New" font-size="11" font-weight="bold" fill="#222">GND</text>

<!-- ══ Arduino Uno ══════════════════════════════════════════════════════ -->
<rect x="30" y="50" width="145" height="745" rx="6"
      fill="#1a3a6e" stroke="#4a7ab8" stroke-width="2"/>
<text x="102" y="76"  text-anchor="middle"
      font-family="Courier New" font-size="13" font-weight="bold" fill="#9bc8f0">ESP32</text>
<text x="102" y="92" text-anchor="middle"
      font-family="Courier New" font-size="10" fill="#7aa8d0">ESP-WROOM-32</text>
<line x1="35" y1="97" x2="170" y2="97" stroke="#4a7ab8" stroke-width="1"/>

<text x="170" y="129" text-anchor="end" font-family="Courier New" font-size="10" fill="#777">5V/VIN (unbenutzt)</text>
<text x="170" y="169" text-anchor="end" font-family="Courier New" font-size="10" fill="#aaaaaa">GND</text>
<text x="170" y="229" text-anchor="end" font-family="Courier New" font-size="10" fill="#90caf9">GPIO2</text>
<text x="170" y="279" text-anchor="end" font-family="Courier New" font-size="10" fill="#90caf9">GPIO4</text>
<text x="170" y="329" text-anchor="end" font-family="Courier New" font-size="10" fill="#90caf9">GPIO5</text>
<text x="170" y="379" text-anchor="end" font-family="Courier New" font-size="10" fill="#90caf9">GPIO18</text>
<text x="170" y="429" text-anchor="end" font-family="Courier New" font-size="10" fill="#90caf9">GPIO19</text>
<text x="170" y="479" text-anchor="end" font-family="Courier New" font-size="10" fill="#90caf9">GPIO21</text>
<text x="170" y="529" text-anchor="end" font-family="Courier New" font-size="10" fill="#90caf9">GPIO22</text>
<text x="170" y="579" text-anchor="end" font-family="Courier New" font-size="10" fill="#e1bee7">GPIO23~</text>
<text x="170" y="629" text-anchor="end" font-family="Courier New" font-size="10" fill="#90caf9">GPIO15</text>
<text x="170" y="679" text-anchor="end" font-family="Courier New" font-size="10" fill="#90caf9">GPIO13</text>
<text x="170" y="729" text-anchor="end" font-family="Courier New" font-size="10" fill="#90caf9">GPIO14</text>

<circle cx="175" cy="125" r="4" fill="#999"/>
<circle cx="175" cy="165" r="4" fill="#222"/>
<circle cx="175" cy="225" r="4" fill="#1565c0"/>
<circle cx="175" cy="275" r="4" fill="#1565c0"/>
<circle cx="175" cy="325" r="4" fill="#1565c0"/>
<circle cx="175" cy="375" r="4" fill="#1565c0"/>
<circle cx="175" cy="425" r="4" fill="#1565c0"/>
<circle cx="175" cy="475" r="4" fill="#1565c0"/>
<circle cx="175" cy="525" r="4" fill="#1565c0"/>
<circle cx="175" cy="575" r="4" fill="#9c27b0"/>
<circle cx="175" cy="625" r="4" fill="#1565c0"/>
<circle cx="175" cy="675" r="4" fill="#1565c0"/>
<circle cx="175" cy="725" r="4" fill="#1565c0"/>

<!-- 5V/VIN Pin bleibt unbenutzt: ESP32 wird per USB versorgt, Schiene per Power MB V2 -->
<!-- GND Pin verbindet zur Schiene via x=191 -->
<line x1="175" y1="165" x2="191" y2="165" stroke="#222" stroke-width="1.5"/>
<line x1="191" y1="165" x2="191" y2="810" stroke="#222" stroke-width="1" stroke-dasharray="4,3"/>

<!-- ══ LED-Schaltkreise D2..D8 ══════════════════════════════════════════ -->

<!-- D2 Kueche y=225 -->
<line x1="175" y1="225" x2="230" y2="225" stroke="#1565c0" stroke-width="1.5"/>
<rect x="230" y="217" width="70" height="16" rx="3" fill="#f57f17" stroke="#c66200" stroke-width="1"/>
<text x="265" y="228" text-anchor="middle" font-family="Courier New" font-size="9" fill="#fff">330 &#x3a9;</text>
<line x1="300" y1="225" x2="355" y2="225" stroke="#1565c0" stroke-width="1.5"/>
<rect x="355" y="212" width="100" height="26" rx="3" fill="#2e7d32" stroke="#1b5e20" stroke-width="1"/>
<text x="405" y="225" text-anchor="middle" font-family="Courier New" font-size="9" font-weight="bold" fill="#fff">LED</text>
<text x="405" y="235" text-anchor="middle" font-family="Courier New" font-size="8" fill="#a5d6a7">Kueche</text>
<line x1="455" y1="225" x2="480" y2="225" stroke="#1565c0" stroke-width="1.5"/>
<line x1="480" y1="225" x2="480" y2="810" stroke="#222" stroke-width="1.5"/>

<!-- D3 Wohnbereich1 y=275 -->
<line x1="175" y1="275" x2="230" y2="275" stroke="#1565c0" stroke-width="1.5"/>
<rect x="230" y="267" width="70" height="16" rx="3" fill="#f57f17" stroke="#c66200" stroke-width="1"/>
<text x="265" y="278" text-anchor="middle" font-family="Courier New" font-size="9" fill="#fff">330 &#x3a9;</text>
<line x1="300" y1="275" x2="355" y2="275" stroke="#1565c0" stroke-width="1.5"/>
<rect x="355" y="262" width="100" height="26" rx="3" fill="#2e7d32" stroke="#1b5e20" stroke-width="1"/>
<text x="405" y="275" text-anchor="middle" font-family="Courier New" font-size="9" font-weight="bold" fill="#fff">LED</text>
<text x="405" y="285" text-anchor="middle" font-family="Courier New" font-size="8" fill="#a5d6a7">Wohnbereich 1</text>
<line x1="455" y1="275" x2="495" y2="275" stroke="#1565c0" stroke-width="1.5"/>
<line x1="495" y1="275" x2="495" y2="810" stroke="#222" stroke-width="1.5"/>

<!-- D4 Wohnbereich2 y=325 -->
<line x1="175" y1="325" x2="230" y2="325" stroke="#1565c0" stroke-width="1.5"/>
<rect x="230" y="317" width="70" height="16" rx="3" fill="#f57f17" stroke="#c66200" stroke-width="1"/>
<text x="265" y="328" text-anchor="middle" font-family="Courier New" font-size="9" fill="#fff">330 &#x3a9;</text>
<line x1="300" y1="325" x2="355" y2="325" stroke="#1565c0" stroke-width="1.5"/>
<rect x="355" y="312" width="100" height="26" rx="3" fill="#2e7d32" stroke="#1b5e20" stroke-width="1"/>
<text x="405" y="325" text-anchor="middle" font-family="Courier New" font-size="9" font-weight="bold" fill="#fff">LED</text>
<text x="405" y="335" text-anchor="middle" font-family="Courier New" font-size="8" fill="#a5d6a7">Wohnbereich 2</text>
<line x1="455" y1="325" x2="510" y2="325" stroke="#1565c0" stroke-width="1.5"/>
<line x1="510" y1="325" x2="510" y2="810" stroke="#222" stroke-width="1.5"/>

<!-- D5 Eingang y=375 -->
<line x1="175" y1="375" x2="230" y2="375" stroke="#1565c0" stroke-width="1.5"/>
<rect x="230" y="367" width="70" height="16" rx="3" fill="#f57f17" stroke="#c66200" stroke-width="1"/>
<text x="265" y="378" text-anchor="middle" font-family="Courier New" font-size="9" fill="#fff">330 &#x3a9;</text>
<line x1="300" y1="375" x2="355" y2="375" stroke="#1565c0" stroke-width="1.5"/>
<rect x="355" y="362" width="100" height="26" rx="3" fill="#2e7d32" stroke="#1b5e20" stroke-width="1"/>
<text x="405" y="375" text-anchor="middle" font-family="Courier New" font-size="9" font-weight="bold" fill="#fff">LED</text>
<text x="405" y="385" text-anchor="middle" font-family="Courier New" font-size="8" fill="#a5d6a7">Eingang</text>
<line x1="455" y1="375" x2="525" y2="375" stroke="#1565c0" stroke-width="1.5"/>
<line x1="525" y1="375" x2="525" y2="810" stroke="#222" stroke-width="1.5"/>

<!-- D6 Bad y=425 (PIR-gesteuert) -->
<line x1="175" y1="425" x2="230" y2="425" stroke="#1565c0" stroke-width="1.5"/>
<rect x="230" y="417" width="70" height="16" rx="3" fill="#f57f17" stroke="#c66200" stroke-width="1"/>
<text x="265" y="428" text-anchor="middle" font-family="Courier New" font-size="9" fill="#fff">330 &#x3a9;</text>
<line x1="300" y1="425" x2="355" y2="425" stroke="#1565c0" stroke-width="1.5"/>
<rect x="355" y="412" width="100" height="26" rx="3" fill="#2e7d32" stroke="#1b5e20" stroke-width="1"/>
<text x="405" y="425" text-anchor="middle" font-family="Courier New" font-size="9" font-weight="bold" fill="#fff">LED</text>
<text x="405" y="435" text-anchor="middle" font-family="Courier New" font-size="8" fill="#a5d6a7">Bad (PIR-auto)</text>
<line x1="455" y1="425" x2="540" y2="425" stroke="#1565c0" stroke-width="1.5"/>
<line x1="540" y1="425" x2="540" y2="810" stroke="#222" stroke-width="1.5"/>

<!-- D7 Uebergang y=475 -->
<line x1="175" y1="475" x2="230" y2="475" stroke="#1565c0" stroke-width="1.5"/>
<rect x="230" y="467" width="70" height="16" rx="3" fill="#f57f17" stroke="#c66200" stroke-width="1"/>
<text x="265" y="478" text-anchor="middle" font-family="Courier New" font-size="9" fill="#fff">330 &#x3a9;</text>
<line x1="300" y1="475" x2="355" y2="475" stroke="#1565c0" stroke-width="1.5"/>
<rect x="355" y="462" width="100" height="26" rx="3" fill="#2e7d32" stroke="#1b5e20" stroke-width="1"/>
<text x="405" y="475" text-anchor="middle" font-family="Courier New" font-size="9" font-weight="bold" fill="#fff">LED</text>
<text x="405" y="485" text-anchor="middle" font-family="Courier New" font-size="8" fill="#a5d6a7">Uebergang</text>
<line x1="455" y1="475" x2="555" y2="475" stroke="#1565c0" stroke-width="1.5"/>
<line x1="555" y1="475" x2="555" y2="810" stroke="#222" stroke-width="1.5"/>

<!-- D8 Schlafzimmer y=525 -->
<line x1="175" y1="525" x2="230" y2="525" stroke="#1565c0" stroke-width="1.5"/>
<rect x="230" y="517" width="70" height="16" rx="3" fill="#f57f17" stroke="#c66200" stroke-width="1"/>
<text x="265" y="528" text-anchor="middle" font-family="Courier New" font-size="9" fill="#fff">330 &#x3a9;</text>
<line x1="300" y1="525" x2="355" y2="525" stroke="#1565c0" stroke-width="1.5"/>
<rect x="355" y="512" width="100" height="26" rx="3" fill="#2e7d32" stroke="#1b5e20" stroke-width="1"/>
<text x="405" y="525" text-anchor="middle" font-family="Courier New" font-size="9" font-weight="bold" fill="#fff">LED</text>
<text x="405" y="535" text-anchor="middle" font-family="Courier New" font-size="8" fill="#a5d6a7">Schlafzimmer</text>
<line x1="455" y1="525" x2="570" y2="525" stroke="#1565c0" stroke-width="1.5"/>
<line x1="570" y1="525" x2="570" y2="810" stroke="#222" stroke-width="1.5"/>

<!-- ══ VCC/GND Verteilerleitung fuer rechte Komponenten ══════════════════ -->
<line x1="620" y1="80"  x2="620" y2="730" stroke="#cc2222" stroke-width="1.5" stroke-dasharray="5,3"/>
<line x1="628" y1="600" x2="628" y2="810" stroke="#222"    stroke-width="1.5" stroke-dasharray="5,3"/>

<!-- ══ Servo SG90 (D9, y=575) ════════════════════════════════════════════ -->
<rect x="660" y="555" width="230" height="60" rx="5"
      fill="#4527a0" stroke="#311b92" stroke-width="1.5"/>
<text x="775" y="577" text-anchor="middle"
      font-family="Courier New" font-size="12" font-weight="bold" fill="#fff">Servo SG90</text>
<text x="775" y="591" text-anchor="middle"
      font-family="Courier New" font-size="9" fill="#ce93d8">(Rollo  0&#xb0;=zu  90&#xb0;=auf)</text>

<line x1="175" y1="575" x2="660" y2="575" stroke="#9c27b0" stroke-width="1.5"/>
<circle cx="660" cy="575" r="3" fill="#9c27b0"/>
<text x="656" y="572" text-anchor="end" font-family="Courier New" font-size="8" fill="#9c27b0">Signal</text>

<line x1="620" y1="585" x2="660" y2="585" stroke="#cc2222" stroke-width="1.5"/>
<circle cx="660" cy="585" r="3" fill="#cc2222"/>
<text x="656" y="589" text-anchor="end" font-family="Courier New" font-size="8" fill="#cc2222">VCC</text>

<line x1="628" y1="600" x2="660" y2="600" stroke="#222" stroke-width="1.5"/>
<circle cx="660" cy="600" r="3" fill="#222"/>
<text x="656" y="609" text-anchor="end" font-family="Courier New" font-size="8" fill="#333">GND</text>

<text x="898" y="569" font-family="Courier New" font-size="8" fill="#e1bee7">Orange &#x2192; Signal &#x2192; GPIO23</text>
<text x="898" y="581" font-family="Courier New" font-size="8" fill="#e1bee7">Rot    &#x2192; VCC   &#x2192; 5V (extern!)</text>
<text x="898" y="593" font-family="Courier New" font-size="8" fill="#e1bee7">Braun  &#x2192; GND   &#x2192; GND</text>
<text x="898" y="607" font-family="Courier New" font-size="8" fill="#ffcc80">&#x26a1; NICHT vom ESP32-5V-Pin speisen!</text>

<!-- ══ DHT11 (D10, y=625) ═════════════════════════════════════════════════ -->
<rect x="660" y="615" width="230" height="55" rx="5"
      fill="#4527a0" stroke="#311b92" stroke-width="1.5"/>
<text x="775" y="636" text-anchor="middle"
      font-family="Courier New" font-size="12" font-weight="bold" fill="#fff">DHT11</text>
<text x="775" y="650" text-anchor="middle"
      font-family="Courier New" font-size="9" fill="#ce93d8">(Schlafzimmer &#x2022; Temperatur)</text>

<line x1="620" y1="623" x2="660" y2="623" stroke="#cc2222" stroke-width="1.5"/>
<circle cx="660" cy="623" r="3" fill="#cc2222"/>
<text x="656" y="622" text-anchor="end" font-family="Courier New" font-size="8" fill="#cc2222">VCC</text>

<line x1="175" y1="625" x2="660" y2="625" stroke="#1565c0" stroke-width="1.5"/>
<circle cx="660" cy="625" r="3" fill="#1565c0"/>
<text x="656" y="634" text-anchor="end" font-family="Courier New" font-size="8" fill="#1565c0">Data</text>

<!-- 10k Pull-up zwischen VCC-Leitung und Data-Leitung -->
<rect x="577" y="616" width="38" height="14" rx="2" fill="#f57f17" stroke="#c66200" stroke-width="1"/>
<text x="596" y="626" text-anchor="middle" font-family="Courier New" font-size="8" fill="#fff">10k&#x3a9;</text>
<line x1="596" y1="616" x2="596" y2="80"  stroke="#cc2222" stroke-width="1" stroke-dasharray="3,2"/>
<line x1="596" y1="630" x2="596" y2="625" stroke="#1565c0" stroke-width="1" stroke-dasharray="3,2"/>
<circle cx="596" cy="625" r="2.5" fill="#1565c0"/>

<line x1="628" y1="653" x2="660" y2="653" stroke="#222" stroke-width="1.5"/>
<circle cx="660" cy="653" r="3" fill="#222"/>
<text x="656" y="662" text-anchor="end" font-family="Courier New" font-size="8" fill="#333">GND</text>

<text x="898" y="622" font-family="Courier New" font-size="8" fill="#e1bee7">Pin 1 = VCC  &#x2192; 3.3V o. 5V</text>
<text x="898" y="634" font-family="Courier New" font-size="8" fill="#e1bee7">Pin 2 = Data &#x2192; GPIO15 + 10k&#x3a9;*</text>
<text x="898" y="646" font-family="Courier New" font-size="8" fill="#e1bee7">Pin 3 = GND  &#x2192; GND</text>
<text x="898" y="660" font-family="Courier New" font-size="8" fill="#ffcc80">* Modul-Version: 10k&#x3a9; eingebaut</text>

<!-- ══ Taster (D11, y=675) ════════════════════════════════════════════════ -->
<rect x="660" y="678" width="230" height="44" rx="5"
      fill="#4527a0" stroke="#311b92" stroke-width="1.5"/>
<text x="775" y="698" text-anchor="middle"
      font-family="Courier New" font-size="12" font-weight="bold" fill="#fff">Taster</text>
<text x="775" y="712" text-anchor="middle"
      font-family="Courier New" font-size="9" fill="#ce93d8">(Zentral An/Aus)</text>

<line x1="175" y1="675" x2="660" y2="675" stroke="#1565c0" stroke-width="1.5"/>
<circle cx="660" cy="675" r="3" fill="#1565c0"/>
<text x="656" y="679" text-anchor="end" font-family="Courier New" font-size="8" fill="#1565c0">Seite A &#x2192; GPIO13</text>

<line x1="628" y1="697" x2="660" y2="697" stroke="#222" stroke-width="1.5"/>
<circle cx="660" cy="697" r="3" fill="#222"/>
<text x="656" y="706" text-anchor="end" font-family="Courier New" font-size="8" fill="#333">Seite B &#x2192; GND</text>

<text x="898" y="690" font-family="Courier New" font-size="8" fill="#e1bee7">Seite A &#x2192; GPIO13</text>
<text x="898" y="702" font-family="Courier New" font-size="8" fill="#e1bee7">Seite B &#x2192; GND</text>
<text x="898" y="716" font-family="Courier New" font-size="8" fill="#ffcc80">INPUT_PULLUP &#x2192; kein R noetig</text>

<!-- ══ PIR HC-SR501 (D12, y=725) ══════════════════════════════════════════ -->
<rect x="660" y="730" width="230" height="58" rx="5"
      fill="#4527a0" stroke="#311b92" stroke-width="1.5"/>
<text x="775" y="752" text-anchor="middle"
      font-family="Courier New" font-size="12" font-weight="bold" fill="#fff">PIR HC-SR501</text>
<text x="775" y="766" text-anchor="middle"
      font-family="Courier New" font-size="9" fill="#ce93d8">(Bewegungssensor Bad)</text>

<line x1="620" y1="736" x2="660" y2="736" stroke="#cc2222" stroke-width="1.5"/>
<circle cx="660" cy="736" r="3" fill="#cc2222"/>
<text x="656" y="735" text-anchor="end" font-family="Courier New" font-size="8" fill="#cc2222">VCC</text>

<!-- PIR OUT von D12: Linie links vorbei, dann hoch zu Box-Mitte -->
<line x1="175" y1="725" x2="636" y2="725" stroke="#1565c0" stroke-width="1.5"/>
<line x1="636" y1="725" x2="636" y2="750" stroke="#1565c0" stroke-width="1.5"/>
<line x1="636" y1="750" x2="660" y2="750" stroke="#1565c0" stroke-width="1.5"/>
<circle cx="660" cy="750" r="3" fill="#1565c0"/>
<text x="656" y="755" text-anchor="end" font-family="Courier New" font-size="8" fill="#1565c0">OUT</text>

<line x1="628" y1="770" x2="660" y2="770" stroke="#222" stroke-width="1.5"/>
<circle cx="660" cy="770" r="3" fill="#222"/>
<text x="656" y="779" text-anchor="end" font-family="Courier New" font-size="8" fill="#333">GND</text>

<text x="898" y="739" font-family="Courier New" font-size="8" fill="#e1bee7">VCC &#x2192; 5V</text>
<text x="898" y="751" font-family="Courier New" font-size="8" fill="#e1bee7">OUT &#x2192; GPIO14</text>
<text x="898" y="763" font-family="Courier New" font-size="8" fill="#e1bee7">GND &#x2192; GND</text>
<text x="898" y="778" font-family="Courier New" font-size="8" fill="#ffcc80">5V-Betrieb, Empfindlichkeit regelbar</text>

<!-- ══ Legende ════════════════════════════════════════════════════════════ -->
<rect x="20" y="825" width="1020" height="38" rx="4" fill="#dde5ef" stroke="#aab" stroke-width="1"/>
<line x1="38"  y1="845" x2="75"  y2="845" stroke="#cc2222" stroke-width="2.5"/>
<text x="80"  y="849" font-family="Courier New" font-size="10" fill="#333">5V-Schiene</text>
<line x1="162" y1="845" x2="199" y2="845" stroke="#222" stroke-width="2.5"/>
<text x="204" y="849" font-family="Courier New" font-size="10" fill="#333">GND-Schiene</text>
<line x1="304" y1="845" x2="341" y2="845" stroke="#1565c0" stroke-width="1.5"/>
<text x="346" y="849" font-family="Courier New" font-size="10" fill="#333">Signal</text>
<rect x="413" y="839" width="20" height="12" rx="2" fill="#f57f17"/>
<text x="438" y="849" font-family="Courier New" font-size="10" fill="#333">Widerstand</text>
<rect x="530" y="839" width="20" height="12" rx="2" fill="#2e7d32"/>
<text x="555" y="849" font-family="Courier New" font-size="10" fill="#333">LED  (Anode-&#x2192;R-&#x2192;Pin  Kathode-&#x2192;GND)</text>
<rect x="793" y="839" width="20" height="12" rx="2" fill="#4527a0"/>
<text x="818" y="849" font-family="Courier New" font-size="10" fill="#333">Sensor / Aktor</text>

<!-- ══ Stueckliste ════════════════════════════════════════════════════════ -->
<rect x="900" y="50" width="148" height="175" rx="4" fill="#fffde7" stroke="#f9a825" stroke-width="1"/>
<text x="974" y="68" text-anchor="middle"
      font-family="Courier New" font-size="10" font-weight="bold" fill="#5d4037">Stueckliste</text>
<line x1="905" y1="72" x2="1044" y2="72" stroke="#f9a825" stroke-width="0.5"/>
<text x="910" y="85"  font-family="Courier New" font-size="9" fill="#333">7x LED (any color)</text>
<text x="910" y="98"  font-family="Courier New" font-size="9" fill="#333">7x 330 &#x3a9;</text>
<text x="910" y="111" font-family="Courier New" font-size="9" fill="#333">1x Servo SG90</text>
<text x="910" y="124" font-family="Courier New" font-size="9" fill="#333">1x DHT11 Sensor</text>
<text x="910" y="137" font-family="Courier New" font-size="9" fill="#888">  (Modul: 10k eingebaut)</text>
<text x="910" y="150" font-family="Courier New" font-size="9" fill="#333">1x Taster</text>
<text x="910" y="163" font-family="Courier New" font-size="9" fill="#333">1x PIR HC-SR501</text>
<text x="910" y="176" font-family="Courier New" font-size="9" fill="#333">1x 10k&#x3a9; (DHT11 3-Pin)</text>
<text x="910" y="189" font-family="Courier New" font-size="9" fill="#333">Breadboard + Kabel</text>
<text x="910" y="202" font-family="Courier New" font-size="9" fill="#333">1x ESP32-WROOM-32</text>
<text x="910" y="215" font-family="Courier New" font-size="8" fill="#888">Servo extern speisen (5V)!</text>

</svg>
